<?xml version="1.0" encoding="UTF-8"?>
<svg xmlns="http://www.w3.org/2000/svg" width="691" height="345" viewBox="0 0 691 345" fill="none">
  <path d="M81 240C66.3333 240 53.7333 237.067 43.2 231.2C32.8 225.2 24.8 216.8 19.2 206C13.6 195.067 10.8 182.2 10.8 167.4C10.8 152.6 13.6 139.8 19.2 129C24.8 118.2 32.8 109.867 43.2 104C53.7333 98 66.3333 95 81 95C90.4667 95 99.4 96.4667 107.8 99.4C116.333 102.333 123.333 106.533 128.8 112L120.4 132.4C114.4 127.333 108.267 123.667 102 121.4C95.7333 119 89 117.8 81.8 117.8C67.5333 117.8 56.6667 122.133 49.2 130.8C41.7333 139.333 38 151.533 38 167.4C38 183.267 41.7333 195.533 49.2 204.2C56.6667 212.867 67.5333 217.2 81.8 217.2C89 217.2 95.7333 216.067 102 213.8C108.267 211.4 114.4 207.667 120.4 202.6L128.8 223C123.333 228.333 116.333 232.533 107.8 235.6C99.4 238.533 90.4667 240 81 240ZM133.013 238L196.813 97H217.813L281.613 238H255.613L241.613 205.4H172.813L159.013 238H133.013ZM207.013 124.8L181.613 185H232.812L207.413 124.8H207.013ZM344.078 240C333.011 240 322.745 238.6 313.278 235.8C303.811 232.867 295.811 228.933 289.278 224L297.078 203.8C303.611 208.467 310.745 212.067 318.478 214.6C326.345 217.133 334.878 218.4 344.078 218.4C354.611 218.4 362.278 216.667 367.078 213.2C371.878 209.6 374.278 205 374.278 199.4C374.278 194.733 372.545 191.067 369.078 188.4C365.745 185.733 359.945 183.533 351.678 181.8L329.678 177.2C304.611 171.867 292.078 159 292.078 138.6C292.078 129.8 294.411 122.133 299.078 115.6C303.745 109.067 310.211 104 318.478 100.4C326.745 96.8 336.278 95 347.078 95C356.678 95 365.678 96.4667 374.078 99.4C382.478 102.2 389.478 106.2 395.078 111.4L387.278 130.6C376.211 121.267 362.745 116.6 346.878 116.6C337.678 116.6 330.478 118.533 325.278 122.4C320.078 126.267 317.478 131.333 317.478 137.6C317.478 142.4 319.078 146.267 322.278 149.2C325.478 152 330.945 154.2 338.678 155.8L360.478 160.4C373.678 163.2 383.478 167.6 389.878 173.6C396.411 179.6 399.678 187.6 399.678 197.6C399.678 206 397.411 213.4 392.878 219.8C388.345 226.2 381.878 231.2 373.478 234.8C365.211 238.267 355.411 240 344.078 240ZM470.25 240C459.183 240 448.917 238.6 439.45 235.8C429.983 232.867 421.983 228.933 415.45 224L423.25 203.8C429.783 208.467 436.917 212.067 444.65 214.6C452.517 217.133 461.05 218.4 470.25 218.4C480.783 218.4 488.45 216.667 493.25 213.2C498.05 209.6 500.45 205 500.45 199.4C500.45 194.733 498.717 191.067 495.25 188.4C491.917 185.733 486.117 183.533 477.85 181.8L455.85 177.2C430.783 171.867 418.25 159 418.25 138.6C418.25 129.8 420.583 122.133 425.25 115.6C429.917 109.067 436.383 104 444.65 100.4C452.917 96.8 462.45 95 473.25 95C482.85 95 491.85 96.4667 500.25 99.4C508.65 102.2 515.65 106.2 521.25 111.4L513.45 130.6C502.383 121.267 488.917 116.6 473.05 116.6C463.85 116.6 456.65 118.533 451.45 122.4C446.25 126.267 443.65 131.333 443.65 137.6C443.65 142.4 445.25 146.267 448.45 149.2C451.65 152 457.117 154.2 464.85 155.8L486.65 160.4C499.85 163.2 509.65 167.6 516.05 173.6C522.583 179.6 525.85 187.6 525.85 197.6C525.85 206 523.583 213.4 519.05 219.8C514.517 226.2 508.05 231.2 499.65 234.8C491.383 238.267 481.583 240 470.25 240ZM611.022 240C597.422 240 585.489 237 575.222 231C565.089 225 557.222 216.6 551.622 205.8C546.022 194.867 543.222 182.067 543.222 167.4C543.222 152.6 546.022 139.8 551.622 129C557.222 118.2 565.089 109.867 575.222 104C585.355 98 597.289 95 611.022 95C624.755 95 636.689 98 646.822 104C656.955 109.867 664.822 118.2 670.422 129C676.022 139.8 678.822 152.533 678.822 167.2C678.822 182 676.022 194.867 670.422 205.8C664.822 216.6 656.955 225 646.822 231C636.689 237 624.755 240 611.022 240ZM611.022 218C623.955 218 634.022 213.533 641.222 204.6C648.422 195.667 652.022 183.267 652.022 167.4C652.022 151.4 648.422 139 641.222 130.2C634.155 121.4 624.089 117 611.022 117C598.089 117 588.022 121.4 580.822 130.2C573.622 139 570.022 151.4 570.022 167.4C570.022 183.267 573.622 195.667 580.822 204.6C588.022 213.533 598.089 218 611.022 218Z" fill="#16AB65"></path>
</svg>
