<svg version="1.1" id="Capa_1" xmlns="http://www.w3.org/2000/svg" xmlns:xlink="http://www.w3.org/1999/xlink" x="0px" y="0px" viewBox="0 0 512 512" style="enable-background:new 0 0 512 512;" xml:space="preserve">
<g>
	<g>
		<g>
			<path style="fill:#E19974;" d="M427.342,99.292h-281.6c-10.541,0-19.086,8.545-19.086,19.086v260.998&#10;&#9;&#9;&#9;&#9;c0,9.401,7.621,17.023,17.023,17.023h285.726c9.401,0,17.023-7.621,17.023-17.023V118.378&#10;&#9;&#9;&#9;&#9;C446.428,107.837,437.883,99.292,427.342,99.292z"/>
			<path style="fill:#DC8758;" d="M446.426,118.375v260.996c0,9.409-7.622,17.031-17.021,17.031h-43.291&#10;&#9;&#9;&#9;&#9;c9.399,0,17.021-7.621,17.021-17.031V118.375c0-10.538-8.54-19.078-19.079-19.078h43.291&#10;&#9;&#9;&#9;&#9;C437.885,99.296,446.426,107.837,446.426,118.375z"/>
			<path style="fill:#FFDFCF;" d="M56.565,364.407v118.782l106.309-24.871h123.215l135.201-29.75&#10;&#9;&#9;&#9;&#9;c11.433-2.257,21.233-9.563,26.66-19.875l37.85-71.915c4.904-9.317,1.911-20.836-6.908-26.587l0,0&#10;&#9;&#9;&#9;&#9;c-9.048-5.901-21.127-3.725-27.548,4.961l-47.093,63.714l-114.286-13.771l49.883-37.048c8.348-6.2,10.219-17.93,4.214-26.419v0&#10;&#9;&#9;&#9;&#9;c-5.317-7.517-15.232-10.183-23.602-6.346l-78.694,36.073c0,0-33.143-0.858-69.558,30.297L56.565,364.407z"/>
			<path style="fill:#FFCEBF;" d="M344.061,301.629c6.003,8.49,4.135,20.217-4.215,26.42l-49.884,37.048h-9.419&#10;&#9;&#9;&#9;&#9;c-5.993,0-8.52-7.641-3.709-11.215l34.784-25.833c8.341-6.203,10.218-17.93,4.215-26.42c-0.789-1.119-1.688-2.128-2.657-3.007&#10;&#9;&#9;&#9;&#9;l7.282-3.336c2.567-1.179,5.284-1.738,7.971-1.738C334.482,293.548,340.375,296.424,344.061,301.629z"/>
			<path style="fill:#FFCEBF;" d="M485.801,336.779l-37.848,71.919c-5.434,10.308-15.233,17.61-26.66,19.868l-21.176,4.665&#10;&#9;&#9;&#9;&#9;c5.284-3.536,9.679-8.361,12.716-14.114l44.73-82.337c4.305-8.181,2.527-18.05-3.936-24.233c3.866-3.706,8.96-5.674,14.134-5.674&#10;&#9;&#9;&#9;&#9;c3.826,0,7.691,1.079,11.128,3.316C487.709,315.942,490.705,327.459,485.801,336.779z"/>
			<rect x="255.352" y="99.292" style="fill:#FEE97D;" width="62.381" height="104.904"/>
			<rect x="290.651" y="99.296" style="fill:#FEE45A;" width="27.08" height="104.902"/>
			<circle style="fill:#80D261;" cx="424.535" cy="108.775" r="79.965"/>
			<path style="fill:#68CA44;" d="M504.5,108.776c0,44.16-35.8,79.96-79.96,79.96c-8.311,0-16.321-1.269-23.853-3.616&#10;&#9;&#9;&#9;&#9;c32.503-10.149,56.107-40.494,56.107-76.344S433.19,42.57,400.687,32.422c7.532-2.347,15.542-3.616,23.853-3.616&#10;&#9;&#9;&#9;&#9;C468.7,28.806,504.5,64.616,504.5,108.776z"/>
		</g>
		<g>
			<path style="fill:#FEE45A;" d="M156.565,321.915H20.985c-7.448,0-13.485-6.037-13.485-13.485s6.037-13.485,13.485-13.485h135.581&#10;&#9;&#9;&#9;&#9;c7.448,0,13.485,6.037,13.485,13.485S164.013,321.915,156.565,321.915z"/>
		</g>
		<g>
			<path style="fill:#FEE45A;" d="M202.945,253.743H95.518c-7.448,0-13.485-6.037-13.485-13.485c0-7.448,6.037-13.485,13.485-13.485&#10;&#9;&#9;&#9;&#9;h107.428c7.448,0,13.485,6.037,13.485,13.485C216.43,247.706,210.393,253.743,202.945,253.743z"/>
		</g>
		<g>
			<path style="fill:#FEE45A;" d="M82.033,185.571H20.985c-7.448,0-13.485-6.037-13.485-13.485s6.037-13.485,13.485-13.485h61.048&#10;&#9;&#9;&#9;&#9;c7.448,0,13.485,6.037,13.485,13.485S89.48,185.571,82.033,185.571z"/>
		</g>
		<g>
			<path style="fill:#FEDF30;" d="M170.047,308.431c0,7.452-6.033,13.485-13.485,13.485h-27.189c7.452,0,13.485-6.033,13.485-13.485&#10;&#9;&#9;&#9;&#9;c0-7.452-6.033-13.485-13.485-13.485h27.189C164.013,294.946,170.047,300.979,170.047,308.431z"/>
		</g>
		<g>
			<path style="fill:#FEDF30;" d="M216.435,240.258c0,7.452-6.043,13.485-13.485,13.485H175.76c7.442,0,13.485-6.033,13.485-13.485&#10;&#9;&#9;&#9;&#9;c0-7.452-6.043-13.485-13.485-13.485h27.189C210.391,226.773,216.435,232.806,216.435,240.258z"/>
		</g>
		<g>
			<path style="fill:#FEDF30;" d="M95.521,172.084c0,7.452-6.043,13.485-13.485,13.485H54.847c7.442,0,13.485-6.033,13.485-13.485&#10;&#9;&#9;&#9;&#9;c0-7.442-6.043-13.485-13.485-13.485h27.189C89.478,158.6,95.521,164.643,95.521,172.084z"/>
		</g>
	</g>
	<g>
		<g>
			<path style="fill:none;stroke:#000000;stroke-width:15;stroke-linecap:round;stroke-linejoin:round;stroke-miterlimit:10;" d="&#10;&#9;&#9;&#9;&#9;M126.656,191.488v-73.113c0-10.538,8.55-19.079,19.089-19.079H345.13"/>
			
				<line style="fill:none;stroke:#000000;stroke-width:15;stroke-linecap:round;stroke-linejoin:round;stroke-miterlimit:10;" x1="126.656" y1="362.74" x2="126.656" y2="321.916"/>
			
				<line style="fill:none;stroke:#000000;stroke-width:15;stroke-linecap:round;stroke-linejoin:round;stroke-miterlimit:10;" x1="126.656" y1="294.946" x2="126.656" y2="253.742"/>
			
				<line style="fill:none;stroke:#000000;stroke-width:15;stroke-linecap:round;stroke-linejoin:round;stroke-miterlimit:10;" x1="446.425" y1="321.806" x2="446.425" y2="185.699"/>
			<path style="fill:none;stroke:#000000;stroke-width:15;stroke-linecap:round;stroke-linejoin:round;stroke-miterlimit:10;" d="&#10;&#9;&#9;&#9;&#9;M403.696,432.44l17.593-3.871c11.433-2.257,21.233-9.563,26.66-19.875l37.85-71.915c4.904-9.317,1.911-20.836-6.908-26.587l0,0&#10;&#9;&#9;&#9;&#9;c-9.048-5.901-21.127-3.725-27.548,4.961l-47.093,63.714l-114.286-13.771l49.883-37.048c8.348-6.2,10.219-17.93,4.214-26.419v0&#10;&#9;&#9;&#9;&#9;c-5.317-7.517-15.232-10.183-23.602-6.346l-78.694,36.073c0,0-33.143-0.858-69.558,30.297l-115.642,2.754"/>
			
				<polyline style="fill:none;stroke:#000000;stroke-width:15;stroke-linecap:round;stroke-linejoin:round;stroke-miterlimit:10;" points="&#10;&#9;&#9;&#9;&#9;56.565,483.189 162.873,458.319 286.089,458.319 369.473,439.97 &#9;&#9;&#9;"/>
			
				<rect x="255.352" y="99.292" style="fill:none;stroke:#000000;stroke-width:15;stroke-linecap:round;stroke-linejoin:round;stroke-miterlimit:10;" width="62.381" height="104.904"/>
			
				<circle style="fill:none;stroke:#000000;stroke-width:15;stroke-linecap:round;stroke-linejoin:round;stroke-miterlimit:10;" cx="424.535" cy="108.775" r="79.965"/>
			
				<line style="fill:none;stroke:#000000;stroke-width:15;stroke-linecap:round;stroke-linejoin:round;stroke-miterlimit:10;" x1="289.964" y1="365.095" x2="269.651" y2="381.467"/>
		</g>
		<g>
			<path style="fill:none;stroke:#000000;stroke-width:15;stroke-linecap:round;stroke-linejoin:round;stroke-miterlimit:10;" d="&#10;&#9;&#9;&#9;&#9;M156.565,321.915H20.985c-7.448,0-13.485-6.037-13.485-13.485s6.037-13.485,13.485-13.485h135.581&#10;&#9;&#9;&#9;&#9;c7.448,0,13.485,6.037,13.485,13.485S164.013,321.915,156.565,321.915z"/>
		</g>
		<g>
			<path style="fill:none;stroke:#000000;stroke-width:15;stroke-linecap:round;stroke-linejoin:round;stroke-miterlimit:10;" d="&#10;&#9;&#9;&#9;&#9;M202.945,253.743H95.518c-7.448,0-13.485-6.037-13.485-13.485c0-7.448,6.037-13.485,13.485-13.485h107.428&#10;&#9;&#9;&#9;&#9;c7.448,0,13.485,6.037,13.485,13.485C216.43,247.706,210.393,253.743,202.945,253.743z"/>
		</g>
		<g>
			<path style="fill:none;stroke:#000000;stroke-width:15;stroke-linecap:round;stroke-linejoin:round;stroke-miterlimit:10;" d="&#10;&#9;&#9;&#9;&#9;M82.033,185.571H20.985c-7.448,0-13.485-6.037-13.485-13.485s6.037-13.485,13.485-13.485h61.048&#10;&#9;&#9;&#9;&#9;c7.448,0,13.485,6.037,13.485,13.485S89.48,185.571,82.033,185.571z"/>
		</g>
		
			<polyline style="fill:none;stroke:#000000;stroke-width:15;stroke-linecap:round;stroke-linejoin:round;stroke-miterlimit:10;" points="&#10;&#9;&#9;&#9;381.605,110.321 412.767,141.483 467.466,86.784 &#9;&#9;"/>
	</g>
</g>
<g>
</g>
<g>
</g>
<g>
</g>
<g>
</g>
<g>
</g>
<g>
</g>
<g>
</g>
<g>
</g>
<g>
</g>
<g>
</g>
<g>
</g>
<g>
</g>
<g>
</g>
<g>
</g>
<g>
</g>
</svg>