<svg viewBox="0 0 512 512" xmlns="http://www.w3.org/2000/svg"><g id="_36_Bookmark" data-name="36 Bookmark"><path d="m451.93 210.58-67.74 66a36 36 0 0 0 -10.36 31.86l3.31 19.28a90 90 0 0 0 -53.79 104.41l-69.48-36.53a36 36 0 0 0 -33.5 0l-83.74 44c-26.4 13.88-57.26-8.54-52.22-37.95l16-93.24a36 36 0 0 0 -10.35-31.86l-67.75-66c-21.36-20.82-9.57-57.1 20-61.39l93.62-13.6a36 36 0 0 0 27.07-19.66l41.87-84.84c13.21-26.75 51.35-26.75 64.55 0l41.87 84.84a36 36 0 0 0 27.1 19.69l93.61 13.6c29.51 4.29 41.29 40.57 19.93 61.39z" fill="#f5d267"/><circle cx="410.74" cy="411.13" fill="#f6f4f9" r="89.87"/><path d="m425.92 373.36-15.18 15.19-15.19-15.19a16 16 0 1 0 -22.55 22.58l15.19 15.19-15.19 15.18a16 16 0 1 0 22.58 22.58l15.19-15.18 15.18 15.18a16 16 0 1 0 22.58-22.57l-15.18-15.19 15.18-15.19a16 16 0 1 0 -22.58-22.58z" fill="#f16969"/><path d="m226.94 393a36 36 0 0 0 -6.57 2.66l-83.74 44c-26.4 13.88-57.26-8.54-52.22-37.95l16-93.24a36 36 0 0 0 -10.35-31.86l-67.75-66c-18.85-18.4-11.9-48.79 10.27-58.61a501.67 501.67 0 0 0 194.36 241z" fill="#e0bf60"/><path d="m475.46 473.48a89.89 89.89 0 0 1 -148.68-30.23 497.49 497.49 0 0 0 148.68 30.23z" fill="#e3e2e7"/><path d="m119.84 449.85a42.09 42.09 0 0 1 -41.35-49.15l16-93.24a30 30 0 0 0 -8.62-26.55l-67.75-66a42 42 0 0 1 23.27-71.63l93.61-13.63a30 30 0 0 0 22.58-16.41l.88-1.76a6 6 0 1 1 10.75 5.32l-.87 1.76a42 42 0 0 1 -31.61 23l-93.62 13.6a30 30 0 0 0 -16.63 51.15l67.75 66a42 42 0 0 1 12.08 37.17l-16 93.24a30 30 0 0 0 43.51 31.63l83.74-44a42 42 0 0 1 39.09 0l58.73 30.88a96.8 96.8 0 0 1 -.53-10.08 95.42 95.42 0 0 1 55.56-87l-2.51-14.64a42 42 0 0 1 12.1-37.19l67.74-66a30 30 0 0 0 -16.62-51.15l-93.63-13.6a42 42 0 0 1 -31.62-23l-41.87-84.86a29.41 29.41 0 0 0 -26.88-16.71 29.44 29.44 0 0 0 -26.89 16.71l-17.91 36.29a6 6 0 1 1 -10.77-5.31l17.9-36.28a41.76 41.76 0 0 1 37.66-23.41 41.74 41.74 0 0 1 37.65 23.4l41.87 84.84a30 30 0 0 0 22.58 16.41l93.63 13.6a42 42 0 0 1 23.26 71.63l-67.74 66a30 30 0 0 0 -8.63 26.56l3.31 19.27a6 6 0 0 1 -3.67 6.58 84 84 0 0 0 -50.2 97.45 6 6 0 0 1 -8.63 6.71l-69.47-36.45a30 30 0 0 0 -27.91 0l-83.74 44a42 42 0 0 1 -19.58 4.85z"/><path d="m173.16 101.24a6 6 0 0 1 -5.38-8.66l4.44-9a6 6 0 0 1 10.78 5.31l-4.44 9a6 6 0 0 1 -5.4 3.35z"/><path d="m410.74 507a95.87 95.87 0 1 1 95.87-95.87 96 96 0 0 1 -95.87 95.87zm0-179.74a83.87 83.87 0 1 0 83.87 83.87 84 84 0 0 0 -83.87-83.87z"/><path d="m437.21 459.56a21.9 21.9 0 0 1 -15.53-6.42l-10.94-10.95-10.95 10.95a22 22 0 1 1 -31.06-31.07l10.94-10.94-10.94-10.94a22 22 0 1 1 31.06-31.07l10.95 10.94 10.94-10.94a22 22 0 0 1 31.07 31.07l-10.95 10.94 10.94 10.94a22 22 0 0 1 -15.53 37.49zm-26.47-31.85a6 6 0 0 1 4.24 1.76l15.19 15.18a10 10 0 1 0 14.09-14.09l-15.19-15.19a6 6 0 0 1 0-8.48l15.19-15.19a10 10 0 1 0 -14.09-14.09l-15.17 15.18a6 6 0 0 1 -8.49 0l-15.18-15.18a10 10 0 1 0 -14.1 14.09l15.19 15.19a6 6 0 0 1 0 8.48l-15.19 15.19a10 10 0 1 0 14.1 14.09l15.18-15.18a6 6 0 0 1 4.23-1.76z"/></g></svg>