<svg id="Layer_1" enable-background="new 0 0 512 512" viewBox="0 0 512 512" xmlns="http://www.w3.org/2000/svg" xmlns:xlink="http://www.w3.org/1999/xlink"><clipPath id="SVGID_2_"><path id="SVGID_207_" d="m281.3 376.8h-117.3c-19.4 0-35.7-13.1-40.7-32.5l-31.8-123.7h379.6l-31.8 123.6c-5 19.4-21.4 32.5-40.7 32.5z"/></clipPath><clipPath id="SVGID_4_"><path id="SVGID_209_" d="m88.9 151.6h192.4 192.4c8.3 0 15.7 6.8 15.2 15.2l-2.6 38.7c-.6 8.3-6.8 15.2-15.2 15.2h-189.8-189.8c-8.3 0-14.6-6.8-15.2-15.2l-2.6-38.7c-.5-8.3 6.9-15.2 15.2-15.2z"/></clipPath><clipPath id="SVGID_6_"><path id="SVGID_211_" d="m203.7 22.7c8.6-29.3 52-17.7 44.8 12-21.2 79.3-16.9 63.2-38.2 142.4-3.3 12.4-16 19.7-28.4 16.4s-19.7-16-16.4-28.4c21.3-79.2 17-63.1 38.2-142.4z"/></clipPath><clipPath id="SVGID_8_"><path id="SVGID_213_" d="m359 22.7c-8.6-29.3-52-17.7-44.8 12 21.2 79.3 16.9 63.2 38.2 142.4 3.3 12.4 16 19.7 28.4 16.4s19.7-16 16.4-28.4c-21.3-79.2-17-63.1-38.2-142.4z"/></clipPath><clipPath id="SVGID_10_"><path id="SVGID_215_" d="m127.4 506.7c57.4 0 104.3-46.9 104.3-104.3 0-57.4-46.9-104.3-104.3-104.3s-104.3 46.9-104.3 104.3c0 57.4 46.9 104.3 104.3 104.3z"/></clipPath><clipPath id="SVGID_12_"><path id="SVGID_217_" d="m127.4 332.8c38.4 0 69.6 31.2 69.6 69.6-3.2 92.1-136 92.1-139.2 0 0-38.4 31.1-69.6 69.6-69.6z"/></clipPath><g><g><g><path clip-rule="evenodd" d="m281.3 376.8h-117.3c-19.4 0-35.7-13.1-40.7-32.5l-31.8-123.7h379.6l-31.8 123.6c-5 19.4-21.4 32.5-40.7 32.5z" fill="#e39127" fill-rule="evenodd"/></g><g><g clip-path="url(#SVGID_2_)"><g><path clip-rule="evenodd" d="m256.3 376.8h-117.3c-19.4 0-35.7-13.1-40.7-32.5l-31.8-123.7h379.6l-31.8 123.6c-5 19.4-21.4 32.5-40.7 32.5z" fill="#f99e27" fill-rule="evenodd"/></g></g></g><g><path clip-rule="evenodd" d="m88.9 151.6h192.4 192.4c8.3 0 15.7 6.8 15.2 15.2l-2.6 38.7c-.6 8.3-6.8 15.2-15.2 15.2h-189.8-189.8c-8.3 0-14.6-6.8-15.2-15.2l-2.6-38.7c-.5-8.3 6.9-15.2 15.2-15.2z" fill="#d95859" fill-rule="evenodd"/></g><g><g clip-path="url(#SVGID_4_)"><g><path clip-rule="evenodd" d="m63.9 151.6h192.4 192.4c8.3 0 15.7 6.8 15.2 15.2l-2.6 38.7c-.6 8.3-6.8 15.2-15.2 15.2h-189.8-189.8c-8.3 0-14.6-6.8-15.2-15.2l-2.6-38.7c-.5-8.3 6.8-15.2 15.2-15.2z" fill="#ee5e5f" fill-rule="evenodd"/></g></g></g><g><path clip-rule="evenodd" d="m194.2 253.6c13 0 23.6 10.6 23.6 23.5v40c-.9 31-46.2 31-47.1 0v-40c0-12.9 10.6-23.5 23.5-23.5z" fill="#ffe45e" fill-rule="evenodd"/></g><g><path clip-rule="evenodd" d="m281.3 253.6c13 0 23.6 10.6 23.6 23.5v40c-.8 31-46.2 31-47.1 0v-40c0-12.9 10.6-23.5 23.5-23.5z" fill="#ffe45e" fill-rule="evenodd"/></g><g><path clip-rule="evenodd" d="m368.4 253.6c13 0 23.5 10.6 23.5 23.5v40c-.8 31-46.2 31-47.1 0v-40c.1-12.9 10.7-23.5 23.6-23.5z" fill="#ffe45e" fill-rule="evenodd"/></g><g><path clip-rule="evenodd" d="m203.7 22.7c8.6-29.3 52-17.7 44.8 12-21.2 79.3-16.9 63.2-38.2 142.4-3.3 12.4-16 19.7-28.4 16.4s-19.7-16-16.4-28.4c21.3-79.2 17-63.1 38.2-142.4z" fill="#d8e2f1" fill-rule="evenodd"/></g><g><g clip-path="url(#SVGID_6_)"><g><path clip-rule="evenodd" d="m183.2 22.7c8.6-29.3 52-17.7 44.8 12-21.2 79.3-16.9 63.2-38.2 142.4-3.3 12.4-16 19.7-28.4 16.4s-19.7-16-16.4-28.4c21.3-79.2 17-63.1 38.2-142.4z" fill="#e9ebef" fill-rule="evenodd"/></g></g></g><g><path clip-rule="evenodd" d="m359 22.7c-8.6-29.3-52-17.7-44.8 12 21.2 79.3 16.9 63.2 38.2 142.4 3.3 12.4 16 19.7 28.4 16.4s19.7-16 16.4-28.4c-21.3-79.2-17-63.1-38.2-142.4z" fill="#d8e2f1" fill-rule="evenodd"/></g><g><g clip-path="url(#SVGID_8_)"><g><path clip-rule="evenodd" d="m338.5 22.7c-8.6-29.3-52-17.7-44.8 12 21.2 79.3 16.9 63.2 38.2 142.4 3.3 12.4 16 19.7 28.4 16.4s19.7-16 16.4-28.4c-21.3-79.2-17-63.1-38.2-142.4z" fill="#e9ebef" fill-rule="evenodd"/></g></g></g></g><g><g><path clip-rule="evenodd" d="m127.4 506.7c57.4 0 104.3-46.9 104.3-104.3 0-57.4-46.9-104.3-104.3-104.3s-104.3 46.9-104.3 104.3c0 57.4 46.9 104.3 104.3 104.3z" fill="#d95859" fill-rule="evenodd"/></g><g><g clip-path="url(#SVGID_10_)"><g><path clip-rule="evenodd" d="m109.9 506.7c57.4 0 104.3-46.9 104.3-104.3 0-57.4-46.9-104.3-104.3-104.3s-104.3 46.9-104.3 104.3c0 57.4 46.9 104.3 104.3 104.3z" fill="#ee5e5f" fill-rule="evenodd"/></g></g></g><g><path clip-rule="evenodd" d="m127.4 332.8c38.4 0 69.6 31.2 69.6 69.6-3.2 92.1-136 92.1-139.2 0 0-38.4 31.1-69.6 69.6-69.6z" fill="#d8e2f1" fill-rule="evenodd"/></g><g><g clip-path="url(#SVGID_12_)"><g><path clip-rule="evenodd" d="m106.5 472c38.3 0 69.6-31.3 69.6-69.6-3.3-92.1-135.9-92.1-139.2 0 0 38.4 31.3 69.6 69.6 69.6z" fill="#e9ebef" fill-rule="evenodd"/></g></g></g><g><path clip-rule="evenodd" d="m122.3 362.8c0-6.6 10.1-6.6 10.1 0v34.5h15.8c6.6 0 6.6 10.1 0 10.1h-20.9c-2.8 0-5.1-2.3-5.1-5.1v-39.5z" fill="#ee5e5f" fill-rule="evenodd"/></g></g><g><path clip-rule="evenodd" d="m228.5 381.8c-6.5 0-6.7-10 0-10.1h170.1c17.4-.1 31.5-11.9 35.9-28.7l30.2-117.3h-366.7l18.6 72.4c.7 2.7-.9 5.4-3.6 6.1s-5.4-.9-6.1-3.6l-20.1-78.2c-1.2-3.2 1.3-6.9 4.8-6.8 1.7.4 379.4-.5 380.9.2 2.7.7 4.3 3.4 3.6 6.1l-31.8 123.6c-5.5 21.4-23.6 36.3-45.6 36.3z" fill="#1d1d27" fill-rule="evenodd"/></g><g><path clip-rule="evenodd" d="m169.1 146.6c6.7.1 6.6 10.1 0 10.1h-80.9c-4.9.3-9.4 4.2-9.4 9.2l2.6 39.2c.4 5.6 4.4 10.4 10.1 10.4h379.6c5.7 0 9.8-4.9 10.1-10.4l2.6-39.2c0-5-4.6-8.9-9.4-9.2h-80.9c-6.7 0-6.6-10.1 0-10.1h80.2c11 0 21 9.3 20.2 20.6l-2.6 38.7c-.4 5.5-2.7 10.5-6.3 14.1s-8.4 5.8-13.9 5.8h-379.6c-11.1 0-19.5-9-20.2-19.9l-2.6-38.7c-.8-10.8 8.3-19.8 18.8-20.5l1.4-.1zm176.4 0h-128.4c-6.6 0-6.6 10.1 0 10.1h128.4c6.6 0 6.7-10.1 0-10.1z" fill="#1d1d27" fill-rule="evenodd"/></g><g><path clip-rule="evenodd" d="m368.4 258.6c-10.2 0-18.5 8.3-18.5 18.5v40c.4 24.3 36.5 24.3 37 0v-40c0-10.2-8.3-18.5-18.5-18.5zm0-10.1c15.7 0 28.6 12.9 28.6 28.6v40c-1.1 37.7-56.2 37.7-57.2 0v-40c0-15.7 12.9-28.6 28.6-28.6z" fill="#1d1d27" fill-rule="evenodd"/></g><g><path clip-rule="evenodd" d="m281.3 258.6c-10.2 0-18.5 8.3-18.5 18.5v40c.4 24.3 36.5 24.3 37 0v-40c0-10.2-8.3-18.5-18.5-18.5zm0-10.1c15.7 0 28.6 12.9 28.6 28.6v40c-1.1 37.7-56.2 37.7-57.2 0v-40c0-15.7 12.9-28.6 28.6-28.6z" fill="#1d1d27" fill-rule="evenodd"/></g><g><path clip-rule="evenodd" d="m210.8 340.4c-5.3 3.8-11.2-4.5-5.9-8.2 4.8-3.5 7.8-9 7.8-15.1v-40c-.4-24.3-36.5-24.3-37 0v30.5c0 2.8-2.3 5.1-5.1 5.1s-5.1-2.3-5.1-5.1v-30.5c1.1-37.7 56.2-37.7 57.2 0v40c.1 9.3-4.5 18-11.9 23.3z" fill="#1d1d27" fill-rule="evenodd"/></g><g><path clip-rule="evenodd" d="m354.1 24c-6.5-22.9-40.8-13.7-35 9.4 0 0 38.2 142.4 38.2 142.4 1.3 4.8 4.4 8.7 8.4 11 13.2 8.2 31.2-5.3 26.6-20.4 0 0-38.2-142.4-38.2-142.4zm-3.4-19.7c6.3 3.6 11.2 9.6 13.2 17.1l38.1 142.4c7.2 23.5-20.9 44.6-41.4 31.7-6.2-3.6-11.1-9.5-13.1-17l-38.2-142.5c-7.2-23.5 20.9-44.6 41.4-31.7z" fill="#1d1d27" fill-rule="evenodd"/></g><g><path clip-rule="evenodd" d="m198.8 21.4c10.6-35.7 63.2-21.6 54.6 14.6 0 0-38.2 142.6-38.2 142.6-2 7.5-6.9 13.4-13.1 17-20.5 12.8-48.5-8.2-41.4-31.7-.1-.1 38.1-142.5 38.1-142.5zm18.2-8.4c-4 2.3-7.1 6.2-8.4 11l-38.2 142.4c-5.8 23.1 28.5 32.3 35 9.4 0 0 38.2-142.4 38.2-142.4 4.6-15.1-13.4-28.6-26.6-20.4z" fill="#1d1d27" fill-rule="evenodd"/></g><g><path clip-rule="evenodd" d="m127.4 501.7c87.7.5 132.3-108.6 70.1-169.3-35.3-38.3-104.9-38.3-140.2 0-62.3 60.7-17.6 169.8 70.1 169.3zm77.2-22c-66.9 68.5-187.2 19.4-186.6-77.3 0-60.2 49.2-109.4 109.4-109.4 96.6-.5 145.8 119.8 77.2 186.7z" fill="#1d1d27" fill-rule="evenodd"/></g><g><path clip-rule="evenodd" d="m127.4 327.8c41.2 0 74.7 33.5 74.7 74.7.9 65.8-82.3 99.5-127.4 52.8-46.9-45.2-13.2-128.5 52.7-127.5zm45.6 29c-62.1-58.5-149.7 29.1-91.3 91.3 62.2 58.5 149.8-29.2 91.3-91.3z" fill="#1d1d27" fill-rule="evenodd"/></g><g><path clip-rule="evenodd" d="m122.3 362.8c0-6.6 10.1-6.6 10.1 0v34.5h15.8c6.6 0 6.6 10.1 0 10.1h-20.9c-2.8 0-5.1-2.3-5.1-5.1v-39.5z" fill="#1d1d27" fill-rule="evenodd"/></g></g></svg>