<svg width="34" height="34" viewBox="0 0 34 34" fill="none" xmlns="http://www.w3.org/2000/svg">
<path d="M25.5 31.1667C24.3194 31.1667 23.316 30.7535 22.4896 29.9271C21.6632 29.1007 21.25 28.0972 21.25 26.9167C21.25 26.7514 21.2618 26.5802 21.2854 26.4031C21.309 26.226 21.3444 26.0667 21.3917 25.925L11.4042 20.1167C11.0028 20.4708 10.5542 20.7483 10.0583 20.949C9.5625 21.1496 9.04306 21.25 8.5 21.25C7.31944 21.25 6.31597 20.8368 5.48958 20.0104C4.66319 19.184 4.25 18.1805 4.25 17C4.25 15.8194 4.66319 14.816 5.48958 13.9896C6.31597 13.1632 7.31944 12.75 8.5 12.75C9.04306 12.75 9.5625 12.8503 10.0583 13.051C10.5542 13.2517 11.0028 13.5292 11.4042 13.8833L21.3917 8.075C21.3444 7.93333 21.309 7.77395 21.2854 7.59687C21.2618 7.41979 21.25 7.24861 21.25 7.08333C21.25 5.90277 21.6632 4.8993 22.4896 4.07291C23.316 3.24652 24.3194 2.83333 25.5 2.83333C26.6806 2.83333 27.684 3.24652 28.5104 4.07291C29.3368 4.8993 29.75 5.90277 29.75 7.08333C29.75 8.26388 29.3368 9.26736 28.5104 10.0937C27.684 10.9201 26.6806 11.3333 25.5 11.3333C24.9569 11.3333 24.4375 11.233 23.9417 11.0323C23.4458 10.8316 22.9972 10.5542 22.5958 10.2L12.6083 16.0083C12.6556 16.15 12.691 16.3094 12.7146 16.4865C12.7382 16.6635 12.75 16.8347 12.75 17C12.75 17.1653 12.7382 17.3365 12.7146 17.5135C12.691 17.6906 12.6556 17.85 12.6083 17.9917L22.5958 23.8C22.9972 23.4458 23.4458 23.1684 23.9417 22.9677C24.4375 22.767 24.9569 22.6667 25.5 22.6667C26.6806 22.6667 27.684 23.0799 28.5104 23.9062C29.3368 24.7326 29.75 25.7361 29.75 26.9167C29.75 28.0972 29.3368 29.1007 28.5104 29.9271C27.684 30.7535 26.6806 31.1667 25.5 31.1667ZM25.5 8.49999C25.9014 8.49999 26.2378 8.36423 26.5094 8.0927C26.7809 7.82118 26.9167 7.48472 26.9167 7.08333C26.9167 6.68194 26.7809 6.34548 26.5094 6.07395C26.2378 5.80243 25.9014 5.66666 25.5 5.66666C25.0986 5.66666 24.7622 5.80243 24.4906 6.07395C24.2191 6.34548 24.0833 6.68194 24.0833 7.08333C24.0833 7.48472 24.2191 7.82118 24.4906 8.0927C24.7622 8.36423 25.0986 8.49999 25.5 8.49999ZM8.5 18.4167C8.90139 18.4167 9.23785 18.2809 9.50938 18.0094C9.7809 17.7378 9.91667 17.4014 9.91667 17C9.91667 16.5986 9.7809 16.2621 9.50938 15.9906C9.23785 15.7191 8.90139 15.5833 8.5 15.5833C8.09861 15.5833 7.76215 15.7191 7.49063 15.9906C7.2191 16.2621 7.08333 16.5986 7.08333 17C7.08333 17.4014 7.2191 17.7378 7.49063 18.0094C7.76215 18.2809 8.09861 18.4167 8.5 18.4167ZM25.5 28.3333C25.9014 28.3333 26.2378 28.1976 26.5094 27.926C26.7809 27.6545 26.9167 27.3181 26.9167 26.9167C26.9167 26.5153 26.7809 26.1788 26.5094 25.9073C26.2378 25.6358 25.9014 25.5 25.5 25.5C25.0986 25.5 24.7622 25.6358 24.4906 25.9073C24.2191 26.1788 24.0833 26.5153 24.0833 26.9167C24.0833 27.3181 24.2191 27.6545 24.4906 27.926C24.7622 28.1976 25.0986 28.3333 25.5 28.3333Z" fill="#1D1B20"/>
</svg>
